<svg width="32" height="31" viewBox="0 0 32 31" fill="none" xmlns="http://www.w3.org/2000/svg">
<path d="M19.0473 0.964718C19.668 0.964668 20.278 1.12681 20.8168 1.43508C21.3555 1.74335 21.8044 2.18705 22.1189 2.72222L23.4078 4.9183H26.6869C28.0513 4.9183 29.36 5.46023 30.3249 6.42492C31.2899 7.38961 31.8323 8.69807 31.8327 10.0626V25.1042C31.8327 25.78 31.6996 26.4491 31.441 27.0734C31.1824 27.6978 30.8033 28.265 30.3255 28.7429C29.8477 29.2207 29.2804 29.5997 28.6561 29.8583C28.0318 30.117 27.3626 30.2501 26.6869 30.2501H5.31185C3.94709 30.2501 2.63823 29.7079 1.6732 28.7429C0.708164 27.7778 0.166016 26.469 0.166016 25.1042V10.0626C0.166016 8.69779 0.708164 7.38893 1.6732 6.4239C2.63823 5.45887 3.94709 4.91672 5.31185 4.91672H8.60518L9.9906 2.66205C10.3091 2.14307 10.7554 1.7144 11.2868 1.41697C11.8182 1.11955 12.4169 0.963296 13.0259 0.963135H19.0473V0.964718ZM19.0473 3.33972H13.0259C12.8526 3.33986 12.6814 3.37792 12.5244 3.45122C12.3674 3.52453 12.2284 3.6313 12.117 3.76405L12.0141 3.90655L10.2835 6.72488C10.1774 6.89798 10.0287 7.04097 9.85154 7.14021C9.67441 7.23945 9.4748 7.29161 9.27177 7.29172H5.31343C4.94943 7.29151 4.58895 7.36303 4.25259 7.50218C3.91624 7.64134 3.6106 7.8454 3.35313 8.10272C3.09567 8.36003 2.89143 8.66556 2.75208 9.00183C2.61274 9.33811 2.54102 9.69855 2.54102 10.0626V25.1042C2.54102 26.6337 3.78235 27.8751 5.31185 27.8751H26.6869C27.4217 27.8751 28.1265 27.5831 28.6461 27.0635C29.1658 26.5439 29.4577 25.8391 29.4577 25.1042V10.0626C29.4577 9.32768 29.1658 8.62291 28.6461 8.10328C28.1265 7.58364 27.4217 7.29172 26.6869 7.29172H22.7285C22.5215 7.29183 22.3181 7.23782 22.1384 7.13506C21.9587 7.0323 21.809 6.88435 21.7041 6.70588L20.0701 3.92397C19.9654 3.74573 19.8159 3.59793 19.6365 3.49518C19.4571 3.39244 19.254 3.3383 19.0473 3.33813V3.33972ZM15.9994 9.66672C17.889 9.66672 19.7013 10.4174 21.0375 11.7536C22.3737 13.0898 23.1244 14.9021 23.1244 16.7917C23.1244 18.6814 22.3737 20.4937 21.0375 21.8299C19.7013 23.166 17.889 23.9167 15.9994 23.9167C14.1097 23.9167 12.2974 23.166 10.9612 21.8299C9.62502 20.4937 8.87435 18.6814 8.87435 16.7917C8.87435 14.9021 9.62502 13.0898 10.9612 11.7536C12.2974 10.4174 14.1097 9.66672 15.9994 9.66672ZM15.9994 12.0417C15.3756 12.0417 14.7579 12.1646 14.1816 12.4033C13.6053 12.642 13.0817 12.9919 12.6406 13.433C12.1995 13.874 11.8496 14.3977 11.6109 14.974C11.3722 15.5503 11.2493 16.1679 11.2493 16.7917C11.2493 17.4155 11.3722 18.0332 11.6109 18.6095C11.8496 19.1858 12.1995 19.7094 12.6406 20.1505C13.0817 20.5916 13.6053 20.9414 14.1816 21.1801C14.7579 21.4189 15.3756 21.5417 15.9994 21.5417C17.2591 21.5417 18.4673 21.0413 19.3581 20.1505C20.2489 19.2597 20.7494 18.0515 20.7494 16.7917C20.7494 15.5319 20.2489 14.3238 19.3581 13.433C18.4673 12.5422 17.2591 12.0417 15.9994 12.0417Z" fill="#333333"/>
</svg>
