<svg width="46" height="44" viewBox="0 0 46 44" fill="none" xmlns="http://www.w3.org/2000/svg">
<path d="M39.1001 6.46335C35.4016 2.84742 30.5202 0.598185 25.2974 0.103424C20.0746 -0.391336 14.8377 0.899382 10.4896 3.75306C6.14156 6.60673 2.95474 10.8445 1.47859 15.7359C0.00243592 20.6272 0.329468 25.8655 2.4033 30.5477C2.61945 30.9829 2.69037 31.4728 2.60617 31.949L0.622557 41.2105C0.546134 41.5656 0.56174 41.9336 0.667972 42.2813C0.774204 42.6291 0.967732 42.9458 1.23117 43.2029C1.44712 43.4112 1.70424 43.5748 1.98704 43.6839C2.26984 43.793 2.57246 43.8454 2.87666 43.8379H3.32748L12.9751 41.9549C13.4654 41.8977 13.9626 41.9656 14.4177 42.152C19.2381 44.1664 24.631 44.484 29.6667 43.0502C34.7024 41.6164 39.0652 38.5209 42.0031 34.2975C44.941 30.074 46.2699 24.9873 45.7605 19.9142C45.2511 14.8411 42.9355 10.0996 39.2129 6.50714L39.1001 6.46335ZM14.1472 24.1325C13.7014 24.1325 13.2656 24.0041 12.8949 23.7635C12.5242 23.5229 12.2353 23.181 12.0647 22.7809C11.8941 22.3808 11.8494 21.9406 11.9364 21.5159C12.0234 21.0912 12.2381 20.701 12.5533 20.3948C12.8685 20.0886 13.2702 19.8801 13.7074 19.7956C14.1447 19.7111 14.5979 19.7545 15.0098 19.9202C15.4217 20.0859 15.7737 20.3666 16.0214 20.7266C16.2691 21.0867 16.4013 21.51 16.4013 21.943C16.4013 22.5237 16.1638 23.0806 15.7411 23.4912C15.3184 23.9018 14.745 24.1325 14.1472 24.1325ZM23.1636 24.1325C22.7178 24.1325 22.282 24.0041 21.9113 23.7635C21.5406 23.5229 21.2517 23.181 21.0811 22.7809C20.9105 22.3808 20.8658 21.9406 20.9528 21.5159C21.0398 21.0912 21.2545 20.701 21.5697 20.3948C21.885 20.0886 22.2866 19.8801 22.7239 19.7956C23.1611 19.7111 23.6143 19.7545 24.0262 19.9202C24.4381 20.0859 24.7902 20.3666 25.0378 20.7266C25.2855 21.0867 25.4177 21.51 25.4177 21.943C25.4177 22.5237 25.1802 23.0806 24.7575 23.4912C24.3348 23.9018 23.7614 24.1325 23.1636 24.1325ZM32.18 24.1325C31.7342 24.1325 31.2984 24.0041 30.9277 23.7635C30.557 23.5229 30.2681 23.181 30.0975 22.7809C29.9269 22.3808 29.8823 21.9406 29.9692 21.5159C30.0562 21.0912 30.2709 20.701 30.5861 20.3948C30.9014 20.0886 31.303 19.8801 31.7403 19.7956C32.1775 19.7111 32.6308 19.7545 33.0426 19.9202C33.4545 20.0859 33.8066 20.3666 34.0543 20.7266C34.3019 21.0867 34.4341 21.51 34.4341 21.943C34.4341 22.5237 34.1967 23.0806 33.7739 23.4912C33.3512 23.9018 32.7779 24.1325 32.18 24.1325Z" fill="white"/>
</svg>
