<svg width="46" height="48" viewBox="0 0 46 48" fill="none" xmlns="http://www.w3.org/2000/svg">
<path fill-rule="evenodd" clip-rule="evenodd" d="M18.8105 1.08372C19.8183 0.781392 20.8828 0.718851 21.9191 0.901086C22.9554 1.08332 23.9347 1.50529 24.7789 2.1333C25.6231 2.76131 26.3088 3.57797 26.7812 4.5181C27.2537 5.45823 27.4998 6.49579 27.5 7.54797V40.452C27.4998 41.5041 27.2537 42.5417 26.7812 43.4818C26.3088 44.422 25.6231 45.2386 24.7789 45.8666C23.9347 46.4946 22.9554 46.9166 21.9191 47.0988C20.8828 47.2811 19.8183 47.2185 18.8105 46.9162L5.3105 42.8662C3.92023 42.4492 2.70142 41.5951 1.83488 40.4306C0.968346 39.2662 0.500238 37.8534 0.5 36.402V11.598C0.500238 10.1465 0.968346 8.73374 1.83488 7.56931C2.70142 6.40487 3.92023 5.55077 5.3105 5.13372L18.8105 1.08372ZM29.75 5.99997C29.75 5.40323 29.9871 4.83093 30.409 4.40898C30.831 3.98702 31.4033 3.74997 32 3.74997H38.75C40.5402 3.74997 42.2571 4.46112 43.523 5.72699C44.7888 6.99287 45.5 8.70975 45.5 10.5V12.75C45.5 13.3467 45.2629 13.919 44.841 14.341C44.419 14.7629 43.8467 15 43.25 15C42.6533 15 42.081 14.7629 41.659 14.341C41.237 13.919 41 13.3467 41 12.75V10.5C41 9.90323 40.7629 9.33093 40.341 8.90897C39.919 8.48702 39.3467 8.24996 38.75 8.24996H32C31.4033 8.24996 30.831 8.01291 30.409 7.59095C29.9871 7.169 29.75 6.5967 29.75 5.99997ZM43.25 33C43.8467 33 44.419 33.237 44.841 33.659C45.2629 34.0809 45.5 34.6532 45.5 35.25V37.5C45.5 39.2902 44.7888 41.0071 43.523 42.2729C42.2571 43.5388 40.5402 44.25 38.75 44.25H32C31.4033 44.25 30.831 44.0129 30.409 43.591C29.9871 43.169 29.75 42.5967 29.75 42C29.75 41.4032 29.9871 40.8309 30.409 40.409C30.831 39.987 31.4033 39.75 32 39.75H38.75C39.3467 39.75 39.919 39.5129 40.341 39.091C40.7629 38.669 41 38.0967 41 37.5V35.25C41 34.6532 41.237 34.0809 41.659 33.659C42.081 33.237 42.6533 33 43.25 33ZM16.25 21.75C15.6533 21.75 15.081 21.987 14.659 22.409C14.2371 22.8309 14 23.4032 14 24C14 24.5967 14.2371 25.169 14.659 25.591C15.081 26.0129 15.6533 26.25 16.25 26.25H16.2522C16.849 26.25 17.4213 26.0129 17.8432 25.591C18.2652 25.169 18.5022 24.5967 18.5022 24C18.5022 23.4032 18.2652 22.8309 17.8432 22.409C17.4213 21.987 16.849 21.75 16.2522 21.75H16.25Z" fill="white"/>
</svg>
