<svg width="35" height="35" viewBox="0 0 35 35" fill="none" xmlns="http://www.w3.org/2000/svg">
<path d="M14.9173 29.2499C18.0975 29.2493 21.186 28.1847 23.6911 26.2256L31.5673 34.1018L34.1007 31.5683L26.2245 23.6922C28.1846 21.1868 29.2499 18.0976 29.2507 14.9166C29.2507 7.01354 22.8204 0.583252 14.9173 0.583252C7.01428 0.583252 0.583984 7.01354 0.583984 14.9166C0.583984 22.8196 7.01428 29.2499 14.9173 29.2499ZM14.9173 4.16659C20.8459 4.16659 25.6673 8.98796 25.6673 14.9166C25.6673 20.8452 20.8459 25.6666 14.9173 25.6666C8.98869 25.6666 4.16732 20.8452 4.16732 14.9166C4.16732 8.98796 8.98869 4.16659 14.9173 4.16659Z" fill="#7C7C7C"/>
</svg>
