<svg width="43" height="45" viewBox="0 0 43 45" fill="none" xmlns="http://www.w3.org/2000/svg">
<path d="M25.5198 44.5834H17.4815C16.9778 44.5835 16.4893 44.4114 16.0968 44.0957C15.7044 43.78 15.4317 43.3397 15.3239 42.8477L14.4251 38.6872C13.2261 38.1618 12.0892 37.5048 11.0353 36.7284L6.97862 38.0203C6.49845 38.1734 5.98034 38.1576 5.51034 37.9757C5.04034 37.7937 4.64673 37.4564 4.39487 37.0199L0.36687 30.0614C0.117649 29.6245 0.0240974 29.1159 0.101521 28.6188C0.178945 28.1218 0.42276 27.6657 0.793078 27.3253L3.93995 24.4545C3.79685 23.154 3.79685 21.8418 3.93995 20.5413L0.793078 17.6771C0.422235 17.3365 0.178089 16.88 0.100653 16.3825C0.0232161 15.885 0.117083 15.3759 0.36687 14.9387L4.38604 7.97587C4.6379 7.53932 5.03151 7.20205 5.50151 7.02008C5.97151 6.83811 6.48961 6.82237 6.96979 6.9755L11.0265 8.26737C11.5653 7.86987 12.1262 7.49887 12.7048 7.16321C13.2635 6.84962 13.8377 6.56475 14.4251 6.31079L15.3261 2.15471C15.4334 1.66268 15.7056 1.2221 16.0976 0.906002C16.4896 0.589903 16.9779 0.417278 17.4815 0.416748H25.5198C26.0234 0.417278 26.5116 0.589903 26.9036 0.906002C27.2957 1.2221 27.5679 1.66268 27.6751 2.15471L28.585 6.313C29.7833 6.83836 30.9194 7.49532 31.9725 8.27179L36.0314 6.97992C36.5113 6.82735 37.0289 6.84338 37.4985 7.02532C37.968 7.20727 38.3612 7.54421 38.613 7.98029L42.6322 14.9432C43.1445 15.842 42.9678 16.9792 42.2059 17.6793L39.0591 20.5501C39.2022 21.8506 39.2022 23.1628 39.0591 24.4633L42.2059 27.3341C42.9678 28.0364 43.1445 29.1715 42.6322 30.0703L38.613 37.0331C38.3611 37.4697 37.9675 37.8069 37.4975 37.9889C37.0275 38.1709 36.5094 38.1866 36.0292 38.0335L31.9725 36.7416C30.9195 37.5175 29.7833 38.1738 28.585 38.6982L27.6751 42.8477C27.5674 43.3393 27.295 43.7794 26.9031 44.095C26.5111 44.4107 26.0231 44.583 25.5198 44.5834ZM11.8281 31.8391L13.639 33.1641C14.0475 33.4645 14.4715 33.7405 14.9132 33.9923C15.3283 34.233 15.7523 34.4494 16.1918 34.6459L18.2522 35.5491L19.2614 40.1668H23.7443L24.7535 35.5469L26.8139 34.6437C27.7127 34.2462 28.5673 33.7537 29.3601 33.173L31.1709 31.848L35.6803 33.2834L37.9218 29.4011L34.426 26.2145L34.6733 23.9797C34.7837 23.0014 34.7837 22.0142 34.6733 21.0382L34.426 18.8033L37.924 15.6101L35.6803 11.7256L31.1731 13.161L29.3601 11.836C28.5669 11.2524 27.7132 10.7556 26.8139 10.3542L24.7535 9.45104L23.7443 4.83342H19.2614L18.2455 9.45325L16.1918 10.3542C15.2912 10.7487 14.4372 11.242 13.6456 11.825L11.8325 13.15L7.32754 11.7146L5.08166 15.6101L8.57745 18.7923L8.33012 21.0293C8.2197 22.0076 8.2197 22.9948 8.33012 23.9708L8.57745 26.2057L5.08166 29.3923L7.32312 33.2745L11.8281 31.8391ZM21.4918 31.3334C19.149 31.3334 16.9022 30.4028 15.2457 28.7462C13.5891 27.0896 12.6585 24.8428 12.6585 22.5001C12.6585 20.1573 13.5891 17.9105 15.2457 16.254C16.9022 14.5974 19.149 13.6667 21.4918 13.6667C23.8345 13.6667 26.0813 14.5974 27.7379 16.254C29.3945 17.9105 30.3251 20.1573 30.3251 22.5001C30.3251 24.8428 29.3945 27.0896 27.7379 28.7462C26.0813 30.4028 23.8345 31.3334 21.4918 31.3334ZM21.4918 18.0834C20.6269 18.0843 19.7813 18.3391 19.0599 18.8162C18.3385 19.2933 17.7731 19.9716 17.4338 20.7672C17.0944 21.5627 16.9961 22.4403 17.151 23.2912C17.306 24.1421 17.7073 24.9288 18.3053 25.5537C18.9032 26.1785 19.6715 26.6141 20.5147 26.8063C21.358 26.9985 22.2391 26.9389 23.0488 26.6349C23.8585 26.3309 24.5611 25.7958 25.0694 25.0961C25.5778 24.3964 25.8695 23.5628 25.9085 22.6988V23.5822V22.5001C25.9085 21.3287 25.4431 20.2053 24.6148 19.377C23.7866 18.5487 22.6632 18.0834 21.4918 18.0834Z" fill="white"/>
</svg>
